<svg fill="none" height="24" viewBox="0 0 24 24" width="24" xmlns="http://www.w3.org/2000/svg"><g stroke="#1c274c" stroke-width="1.5"><path d="m22 5.85964c0-.79456-.7906-1.5259-2.117-2.10685-1.1747-.51445-2.383.46684-2.383 1.7492v3.21747m4.5-2.85982v12.71646c0 1.8909-4.4772 3.4237-10 3.4237-5.52285 0-10-1.5328-10-3.4237v-12.71646m20 0c0 1.19523-1.7889 2.24741-4.5 2.85982m-15.5-2.85982c0-.79456.79055-1.5259 2.11705-2.10685 1.17464-.51445 2.38295.46684 2.38295 1.7492v3.21747m-4.5-2.85982c0 1.19523 1.78889 2.24741 4.5 2.85982m0 0c1.5779.35643 3.46818.56389 5.5.56389 2.0318 0 3.9221-.20746 5.5-.56389"/><path d="m19.5 13c0 .8284-.6716 1.5-1.5 1.5s-1.5-.6716-1.5-1.5.6716-1.5 1.5-1.5 1.5.6716 1.5 1.5z"/><path d="m21 20-2.4956-2.1486c-.8048-.6928-2.0034-.7618-2.8892-.1663l-.2309.1552c-.6156.4139-1.4531.3445-1.9852-.1645l-3.321-3.1769c-.66292-.6341-1.72621-.668-2.43171-.0775l-1.35607 1.1351-3.79032 3.547" stroke-linecap="round"/></g></svg>